<?xml version="1.0" encoding="utf-8"?>
<svg width="320" height="204" viewBox="0 0 320 204" xmlns="http://www.w3.org/2000/svg">
<rect id="frame" x="0" y="0" width="320" height="204" fill="#fff" stroke="none" stroke-width="0"/>

<!-- Association APPARTENIR -->
<g class="page_0_umxEGeSr diagram_page" visibility="visible">
	<line x1="278" y1="102" x2="167" y2="102" stroke="#878787" stroke-width="2"/>
	<text x="218" y="119" fill="#b2182b" font-family="Verdana" font-size="12">0,N</text>
	<line x1="49" y1="102" x2="167" y2="102" stroke="#878787" stroke-width="2"/>
	<text x="94" y="119" fill="#b2182b" font-family="Verdana" font-size="12">0,1</text>
	<g>
		<path d="M199 77 a14 14 90 0 1 14 14 V102 h-92 V91 a14 14 90 0 1 14 -14" fill="#bababa" stroke="#bababa" stroke-width="0"/>
		<path d="M213 102 v11 a14 14 90 0 1 -14 14 H135 a14 14 90 0 1 -14 -14 V102 H92" fill="#e0e0e0" stroke="#e0e0e0" stroke-width="0"/>
		<rect x="121" y="77" width="92" height="50" fill="none" rx="14" stroke="#878787" stroke-width="2"/>
		<line x1="121" y1="102" x2="213" y2="102" stroke="#878787" stroke-width="1"/>
		<text x="128" y="94.75" fill="#000" font-family="Verdana" font-size="12">APPARTENIR</text>
	</g>
</g>

<!-- Entity EMPLOYE -->
<g class="page_0_umxEGeSr diagram_page" visibility="visible">
	<g>
		<rect x="9" y="9" width="80" height="25" fill="#f4a582" stroke="#f4a582" stroke-width="0" opacity="1"/>
		<rect x="9" y="34" width="80" height="161" fill="#fddbc7" stroke="#fddbc7" stroke-width="0" opacity="1"/>
		<rect x="9" y="9" width="80" height="186" fill="none" stroke="#d6604d" stroke-width="2" opacity="1"/>
		<line x1="9" y1="34" x2="89" y2="34" stroke="#d6604d" stroke-width="1"/>
	</g>
	<text x="21" y="26.75" fill="#000" font-family="Verdana" font-size="12">EMPLOYE</text>
	<text x="14" y="51.8" fill="#000" font-family="Verdana" font-size="12">idemployee</text>
	<line x1="14" y1="54" x2="84" y2="54" stroke="#000" stroke-width="1"/>
	<text x="14" y="68.8" fill="#000" font-family="Verdana" font-size="12">nom</text>
	<text x="14" y="85.8" fill="#000" font-family="Verdana" font-size="12">prénom</text>
	<text x="14" y="102.8" fill="#000" font-family="Verdana" font-size="12">mail</text>
	<text x="14" y="119.8" fill="#000" font-family="Verdana" font-size="12">password</text>
	<text x="14" y="136.8" fill="#000" font-family="Verdana" font-size="12">datearrivée</text>
	<text x="14" y="153.8" fill="#000" font-family="Verdana" font-size="12">datedépart</text>
	<text x="14" y="170.8" fill="#000" font-family="Verdana" font-size="12">habilitation</text>
	<text x="14" y="187.8" fill="#000" font-family="Verdana" font-size="12">#idligue</text>
</g>

<!-- Entity LIGUE -->
<g class="page_0_umxEGeSr diagram_page" visibility="visible">
	<g>
		<rect x="245" y="68" width="66" height="25" fill="#f4a582" stroke="#f4a582" stroke-width="0" opacity="1"/>
		<rect x="245" y="93" width="66" height="43" fill="#fddbc7" stroke="#fddbc7" stroke-width="0" opacity="1"/>
		<rect x="245" y="68" width="66" height="68" fill="none" stroke="#d6604d" stroke-width="2" opacity="1"/>
		<line x1="245" y1="93" x2="311" y2="93" stroke="#d6604d" stroke-width="1"/>
	</g>
	<text x="259" y="85.75" fill="#000" font-family="Verdana" font-size="12">LIGUE</text>
	<text x="250" y="110.8" fill="#000" font-family="Verdana" font-size="12">idligue</text>
	<line x1="250" y1="113" x2="291" y2="113" stroke="#000" stroke-width="1"/>
	<text x="250" y="127.8" fill="#000" font-family="Verdana" font-size="12">nomligue</text>
</g>
</svg>