<?xml version="1.0" encoding="utf-8"?>
<svg width="320" height="188" viewBox="0 0 320 188" xmlns="http://www.w3.org/2000/svg">
<rect id="frame" x="0" y="0" width="320" height="188" fill="#fff" stroke="none" stroke-width="0"/>

<!-- Association APPARTENIR -->
<g class="page_0_aPMar3Pf diagram_page" visibility="visible">
	<line x1="278" y1="94" x2="167" y2="94" stroke="#d6604d" stroke-width="2"/>
	<text x="218" y="111" fill="#4d4d4d" font-family="Verdana" font-size="12">0,N</text>
	<line x1="49" y1="94" x2="167" y2="94" stroke="#d6604d" stroke-width="2"/>
	<text x="94" y="111" fill="#4d4d4d" font-family="Verdana" font-size="12">0,1</text>
	<g>
		<path d="M199 69 a14 14 90 0 1 14 14 V94 h-92 V83 a14 14 90 0 1 14 -14" fill="#f4a582" stroke="#f4a582" stroke-width="0"/>
		<path d="M213 94 v11 a14 14 90 0 1 -14 14 H135 a14 14 90 0 1 -14 -14 V94 H92" fill="#fddbc7" stroke="#fddbc7" stroke-width="0"/>
		<rect x="121" y="69" width="92" height="50" fill="none" rx="14" stroke="#d6604d" stroke-width="2"/>
		<line x1="121" y1="94" x2="213" y2="94" stroke="#d6604d" stroke-width="1"/>
		<text x="128" y="86.75" fill="#000" font-family="Verdana" font-size="12">APPARTENIR</text>
	</g>
</g>

<!-- Entity EMPLOYE -->
<g class="page_0_aPMar3Pf diagram_page" visibility="visible">
	<g>
		<rect x="9" y="9" width="80" height="25" fill="#bababa" stroke="#bababa" stroke-width="0" opacity="1"/>
		<rect x="9" y="34" width="80" height="145" fill="#e0e0e0" stroke="#e0e0e0" stroke-width="0" opacity="1"/>
		<rect x="9" y="9" width="80" height="170" fill="none" stroke="#878787" stroke-width="2" opacity="1"/>
		<line x1="9" y1="34" x2="89" y2="34" stroke="#878787" stroke-width="1"/>
	</g>
	<text x="21" y="26.75" fill="#000" font-family="Verdana" font-size="12">EMPLOYE</text>
	<text x="14" y="51.8" fill="#000" font-family="Verdana" font-size="12">idemployee</text>
	<line x1="14" y1="54" x2="84" y2="54" stroke="#000" stroke-width="1"/>
	<text x="14" y="68.8" fill="#000" font-family="Verdana" font-size="12">nom</text>
	<text x="14" y="85.8" fill="#000" font-family="Verdana" font-size="12">prénom</text>
	<text x="14" y="102.8" fill="#000" font-family="Verdana" font-size="12">mail</text>
	<text x="14" y="119.8" fill="#000" font-family="Verdana" font-size="12">password</text>
	<text x="14" y="136.8" fill="#000" font-family="Verdana" font-size="12">datearrivée</text>
	<text x="14" y="153.8" fill="#000" font-family="Verdana" font-size="12">datedépart</text>
	<text x="14" y="170.8" fill="#000" font-family="Verdana" font-size="12">habilitation</text>
</g>

<!-- Entity LIGUE -->
<g class="page_0_aPMar3Pf diagram_page" visibility="visible">
	<g>
		<rect x="245" y="60" width="66" height="25" fill="#bababa" stroke="#bababa" stroke-width="0" opacity="1"/>
		<rect x="245" y="85" width="66" height="43" fill="#e0e0e0" stroke="#e0e0e0" stroke-width="0" opacity="1"/>
		<rect x="245" y="60" width="66" height="68" fill="none" stroke="#878787" stroke-width="2" opacity="1"/>
		<line x1="245" y1="85" x2="311" y2="85" stroke="#878787" stroke-width="1"/>
	</g>
	<text x="259" y="77.75" fill="#000" font-family="Verdana" font-size="12">LIGUE</text>
	<text x="250" y="102.8" fill="#000" font-family="Verdana" font-size="12">idligue</text>
	<line x1="250" y1="105" x2="291" y2="105" stroke="#000" stroke-width="1"/>
	<text x="250" y="119.8" fill="#000" font-family="Verdana" font-size="12">nomligue</text>
</g>
</svg>